<svg id="Ebene_1" data-name="Ebene 1" xmlns="http://www.w3.org/2000/svg" xmlns:xlink="http://www.w3.org/1999/xlink" viewBox="0 0 1031.82 263.55"><defs><style>.cls-1{fill:#088b96;}.cls-2,.cls-7,.cls-8{fill:none;}.cls-2{stroke:#6dada8;}.cls-2,.cls-7{stroke-miterlimit:10;}.cls-3{fill:#6bc4cd;}.cls-4{fill:#010101;}.cls-5{fill:#098e98;}.cls-6{fill:#fff;}.cls-7{stroke:#6fada8;stroke-width:0.25px;}.cls-9{fill:#023a45;}.cls-10{fill:#6baea9;}.cls-11{fill:#5c959e;}.cls-12{fill:#095668;}.cls-13{fill:#b44a85;}.cls-14{fill:#311f4e;}.cls-15{fill:#015e63;}.cls-16{fill:#639498;}.cls-17{fill:url(#linear-gradient);}.cls-18{fill:url(#linear-gradient-2);}.cls-19{fill:url(#linear-gradient-3);}.cls-20{fill:url(#linear-gradient-4);}.cls-21{fill:url(#linear-gradient-5);}.cls-22{fill:url(#linear-gradient-6);}.cls-23{fill:url(#linear-gradient-7);}.cls-24{fill:url(#linear-gradient-8);}.cls-25{fill:url(#linear-gradient-9);}.cls-26{fill:url(#linear-gradient-10);}.cls-27{fill:url(#linear-gradient-11);}.cls-28{fill:url(#linear-gradient-12);}.cls-29{fill:url(#linear-gradient-13);}.cls-30{fill:url(#linear-gradient-14);}.cls-31{fill:url(#linear-gradient-15);}.cls-32{fill:url(#linear-gradient-16);}.cls-33{fill:url(#linear-gradient-17);}.cls-34{fill:url(#linear-gradient-18);}.cls-35{fill:url(#linear-gradient-19);}.cls-36{fill:url(#linear-gradient-20);}.cls-37{fill:url(#linear-gradient-21);}.cls-38{fill:url(#linear-gradient-22);}.cls-39{fill:url(#linear-gradient-23);}.cls-40{fill:url(#linear-gradient-24);}.cls-41{fill:url(#linear-gradient-25);}.cls-42{fill:url(#linear-gradient-26);}.cls-43{fill:url(#linear-gradient-27);}.cls-44{fill:url(#linear-gradient-28);}.cls-45{fill:url(#linear-gradient-29);}.cls-46{fill:url(#linear-gradient-30);}.cls-47{fill:url(#linear-gradient-31);}.cls-48{fill:url(#linear-gradient-32);}.cls-49{fill:url(#linear-gradient-33);}.cls-50{fill:url(#linear-gradient-34);}.cls-51{fill:url(#linear-gradient-35);}.cls-52{fill:url(#linear-gradient-36);}.cls-53{fill:url(#linear-gradient-37);}.cls-54{fill:url(#linear-gradient-38);}.cls-55{fill:url(#linear-gradient-39);}.cls-56{fill:url(#linear-gradient-40);}</style><linearGradient id="linear-gradient" x1="768.9" y1="278.14" x2="784.46" y2="278.14" gradientUnits="userSpaceOnUse"><stop offset="0" stop-color="#24b3a8"/><stop offset="0.04" stop-color="#26b3a8"/><stop offset="0.06" stop-color="#2db5aa"/><stop offset="0.07" stop-color="#38b7ac"/><stop offset="0.08" stop-color="#49baaf"/><stop offset="0.08" stop-color="#51bbb1"/><stop offset="0.21" stop-color="#4fbab0"/><stop offset="0.26" stop-color="#48b6ae"/><stop offset="0.3" stop-color="#3dafa9"/><stop offset="0.32" stop-color="#2ca6a2"/><stop offset="0.35" stop-color="#169a9a"/><stop offset="0.36" stop-color="#038f92"/><stop offset="0.67" stop-color="#06898d"/><stop offset="0.73" stop-color="#039d9a"/><stop offset="0.79" stop-color="#02a8a2"/><stop offset="0.85" stop-color="#01aca5"/><stop offset="0.91" stop-color="#01a9a3"/><stop offset="0.96" stop-color="#029f9c"/><stop offset="1" stop-color="#039091"/></linearGradient><linearGradient id="linear-gradient-2" x1="796.33" y1="278.14" x2="814.49" y2="278.14" xlink:href="#linear-gradient"/><linearGradient id="linear-gradient-3" x1="1099.63" y1="278.14" x2="1114.38" y2="278.14" xlink:href="#linear-gradient"/><linearGradient id="linear-gradient-4" x1="847.6" y1="278.14" x2="865.21" y2="278.14" xlink:href="#linear-gradient"/><linearGradient id="linear-gradient-5" x1="881.32" y1="278.14" x2="898.93" y2="278.14" xlink:href="#linear-gradient"/><linearGradient id="linear-gradient-6" x1="915.03" y1="278.14" x2="931.98" y2="278.14" xlink:href="#linear-gradient"/><linearGradient id="linear-gradient-7" x1="945.16" y1="278.14" x2="964.65" y2="278.14" xlink:href="#linear-gradient"/><linearGradient id="linear-gradient-8" x1="974.2" y1="278.14" x2="992.6" y2="278.14" xlink:href="#linear-gradient"/><linearGradient id="linear-gradient-9" x1="1005.89" y1="278.14" x2="1020.65" y2="278.14" xlink:href="#linear-gradient"/><linearGradient id="linear-gradient-10" x1="1036.21" y1="278.14" x2="1053.15" y2="278.14" xlink:href="#linear-gradient"/><linearGradient id="linear-gradient-11" x1="1067.35" y1="278.14" x2="1083.32" y2="278.14" xlink:href="#linear-gradient"/><linearGradient id="linear-gradient-12" x1="768.9" y1="203.21" x2="866.15" y2="203.21" xlink:href="#linear-gradient"/><linearGradient id="linear-gradient-13" x1="872.11" y1="203.21" x2="949.24" y2="203.21" xlink:href="#linear-gradient"/><linearGradient id="linear-gradient-14" x1="961.16" y1="203.21" x2="1031.81" y2="203.21" xlink:href="#linear-gradient"/><linearGradient id="linear-gradient-15" x1="1037.11" y1="203.21" x2="1114.38" y2="203.21" xlink:href="#linear-gradient"/><linearGradient id="linear-gradient-16" x1="82.57" y1="203.21" x2="209.06" y2="203.21" xlink:href="#linear-gradient"/><linearGradient id="linear-gradient-17" x1="222.3" y1="203.21" x2="292.95" y2="203.21" xlink:href="#linear-gradient"/><linearGradient id="linear-gradient-18" x1="302.89" y1="203.21" x2="386.9" y2="203.21" xlink:href="#linear-gradient"/><linearGradient id="linear-gradient-19" x1="387.57" y1="203.21" x2="484.82" y2="203.21" xlink:href="#linear-gradient"/><linearGradient id="linear-gradient-20" x1="0" y1="209.14" x2="402.25" y2="209.14" xlink:href="#linear-gradient"/><linearGradient id="linear-gradient-21" x1="776.68" y1="267.5" x2="776.68" y2="302.57" gradientUnits="userSpaceOnUse"><stop offset="0" stop-color="#e4e1de"/><stop offset="0.1" stop-color="#d5d5d5"/><stop offset="0.12" stop-color="#d1d2d3"/><stop offset="0.19" stop-color="#ededee"/><stop offset="0.22" stop-color="#fff"/><stop offset="0.24" stop-color="#f5f5f6"/><stop offset="0.26" stop-color="#dbdbdc"/><stop offset="0.29" stop-color="#b1b1b4"/><stop offset="0.31" stop-color="#97989b"/><stop offset="0.34" stop-color="#9a9b9d"/><stop offset="0.36" stop-color="#a2a3a6"/><stop offset="0.37" stop-color="#b0b1b3"/><stop offset="0.38" stop-color="#c4c5c7"/><stop offset="0.39" stop-color="#d1d2d3"/><stop offset="0.43" stop-color="#c7c8c9"/><stop offset="0.49" stop-color="#aeaeb0"/><stop offset="0.57" stop-color="#848486"/><stop offset="0.65" stop-color="#5b5a5d"/><stop offset="0.68" stop-color="#646466"/><stop offset="0.73" stop-color="#7c7e80"/><stop offset="0.74" stop-color="#808284"/><stop offset="0.75" stop-color="#9b9c9d"/><stop offset="0.76" stop-color="#b5b5b6"/><stop offset="0.78" stop-color="#c7c8c8"/><stop offset="0.79" stop-color="#d2d2d3"/><stop offset="0.8" stop-color="#d6d6d6"/><stop offset="0.81" stop-color="#d0d1d1"/><stop offset="0.83" stop-color="#bebfc2"/><stop offset="0.86" stop-color="#b3b4b8"/><stop offset="0.89" stop-color="#afb1b5"/></linearGradient><linearGradient id="linear-gradient-22" x1="805.41" y1="267.5" x2="805.41" y2="302.57" xlink:href="#linear-gradient-21"/><linearGradient id="linear-gradient-23" x1="1107.01" y1="267.5" x2="1107.01" y2="302.57" xlink:href="#linear-gradient-21"/><linearGradient id="linear-gradient-24" x1="856.4" y1="267.5" x2="856.4" y2="302.57" xlink:href="#linear-gradient-21"/><linearGradient id="linear-gradient-25" x1="890.12" y1="267.5" x2="890.12" y2="302.57" xlink:href="#linear-gradient-21"/><linearGradient id="linear-gradient-26" x1="923.51" y1="267.5" x2="923.51" y2="302.57" xlink:href="#linear-gradient-21"/><linearGradient id="linear-gradient-27" x1="954.9" y1="267.5" x2="954.9" y2="302.57" xlink:href="#linear-gradient-21"/><linearGradient id="linear-gradient-28" x1="983.4" y1="267.5" x2="983.4" y2="302.57" xlink:href="#linear-gradient-21"/><linearGradient id="linear-gradient-29" x1="1013.27" y1="267.5" x2="1013.27" y2="302.57" xlink:href="#linear-gradient-21"/><linearGradient id="linear-gradient-30" x1="1044.68" y1="267.5" x2="1044.68" y2="302.57" xlink:href="#linear-gradient-21"/><linearGradient id="linear-gradient-31" x1="1075.34" y1="267.5" x2="1075.34" y2="302.57" xlink:href="#linear-gradient-21"/><linearGradient id="linear-gradient-32" x1="817.52" y1="148.14" x2="817.52" y2="332.03" xlink:href="#linear-gradient-21"/><linearGradient id="linear-gradient-33" x1="910.68" y1="148.14" x2="910.68" y2="332.03" xlink:href="#linear-gradient-21"/><linearGradient id="linear-gradient-34" x1="996.49" y1="148.14" x2="996.49" y2="332.03" xlink:href="#linear-gradient-21"/><linearGradient id="linear-gradient-35" x1="1075.75" y1="148.14" x2="1075.75" y2="332.03" xlink:href="#linear-gradient-21"/><linearGradient id="linear-gradient-36" x1="145.81" y1="150.09" x2="145.81" y2="332.75" xlink:href="#linear-gradient-21"/><linearGradient id="linear-gradient-37" x1="257.63" y1="150.09" x2="257.63" y2="332.75" xlink:href="#linear-gradient-21"/><linearGradient id="linear-gradient-38" x1="344.89" y1="150.09" x2="344.89" y2="332.75" xlink:href="#linear-gradient-21"/><linearGradient id="linear-gradient-39" x1="436.2" y1="150.09" x2="436.2" y2="332.75" xlink:href="#linear-gradient-21"/><linearGradient id="linear-gradient-40" x1="0" y1="206.71" x2="402.25" y2="206.71" xlink:href="#linear-gradient-21"/></defs><path class="cls-1" d="M745.68,173.32V230.4a1.43,1.43,0,0,1-.68,1.24l-20.87,13.28v20.75a1.53,1.53,0,0,1-.61,1.2l-24.12,17.2v12a1.47,1.47,0,0,1-.59,1.18l-46,35a1.49,1.49,0,0,1-.88.31h-50a1.53,1.53,0,0,1-.9-.31l-46.05-35a1.46,1.46,0,0,1-.58-1.18v-12l-24.12-17.2a1.5,1.5,0,0,1-.61-1.2V244.92l-20.87-13.28a1.44,1.44,0,0,1-.69-1.24V173.32a1.47,1.47,0,0,1,.57-1.15l21-16.21V142.71a1.48,1.48,0,0,1,.55-1.15l23.45-18.66V108.66a1.49,1.49,0,0,1,.67-1.22l38.21-25,13-13a1.47,1.47,0,0,1,1-.41h40.72a1.48,1.48,0,0,1,1,.41l13,13,38.21,25a1.48,1.48,0,0,1,.66,1.22V122.9l23.46,18.66a1.48,1.48,0,0,1,.55,1.15V156l21,16.21A1.44,1.44,0,0,1,745.68,173.32Z" transform="translate(-82.57 -69)"/><path class="cls-2" d="M658.35,269.47l-5.74-6.36a14.67,14.67,0,0,0,1.68-.28L648.41,257a1.41,1.41,0,0,0-.31-.21.94.94,0,0,1-.18-.12.22.22,0,0,1-.1,0,1.57,1.57,0,0,0-.45-.08,1.49,1.49,0,0,0-1,.43l-11.14,11.17H618.53L607.38,257a.25.25,0,0,0-.12-.07,1.36,1.36,0,0,0-1.84,0,.25.25,0,0,0-.12.07l-5.87,5.88a14.29,14.29,0,0,0,1.68.28l-5.76,6.36h14.4s-1.61.57-3.94,1.59H647.9c-2.35-1-3.95-1.59-3.95-1.59Zm44.73-77.57a.06.06,0,0,1,0,0l-10.85-14.48-.65-.86-2.1-2.83h0l-62,11.82-.6.12-.63-.12h0l-62-11.82L550.57,192v0l-.16.21,0,.18.88,9.42.08.81,1,.68v0l.64.43,18,12.45,10.68,7.4s.8.18,2.06.37L570,214.47l0,0c-1.13-2-2.48-4.84-2.62-7.31A15.13,15.13,0,0,0,579,212.88s-4.43-3.9-5.06-9.54c0,0,7.6,13.23,29.77,6.23a5.43,5.43,0,0,1-.41.45h0a15,15,0,0,1-8.14,4.35s6,4.76,19.95-4.37a63.08,63.08,0,0,1,8.58-4.5l0,0a8.41,8.41,0,0,1,3.16-.71h0a8.33,8.33,0,0,1,3.15.71l0,0a63,63,0,0,1,8.59,4.5c14,9.13,19.94,4.37,19.94,4.37a15,15,0,0,1-8.13-4.35h0a5.43,5.43,0,0,1-.41-.45c22.16,7,29.76-6.23,29.76-6.23-.62,5.64-5,9.54-5,9.54a15.15,15.15,0,0,0,11.66-5.74c-.14,2.49-1.51,5.35-2.67,7.37L670,224c1.25-.19,2-.37,2-.37l10.62-7.36,18-12.49.65-.43,1-.7.08-.83.88-9.34,0-.24Z" transform="translate(-82.57 -69)"/><path class="cls-3" d="M537.42,209.58V190.23l8.2,5.63,3.55-2.57-8.57-7.66,13.23-19s1.47-28.42,1.34-28.17.26-14.33,0-14.21-24,18.49-24,18.49l.49,62.57Z" transform="translate(-82.57 -69)"/><polygon class="cls-3" points="441.87 92.82 441.87 113.39 433.54 119.4 433.54 125.03 427.17 128.95 427.17 104.45 441.87 92.82"/><polygon class="cls-3" points="434.52 166.06 434.52 131.78 447.75 121.84 447.75 115.97 427.17 129.93 427.17 161.16 434.52 166.06"/><path class="cls-3" d="M531.17,241.43l21.8,3.31v14.72l4.41,2.17s1.1-4.29,1.1-4.65-.61-13.57-.61-13.57l-26.7-19Z" transform="translate(-82.57 -69)"/><path class="cls-3" d="M531.17,264.82l25.1,2.69s14.7,11.27,15.07,11.27,5.27-3.31,5.27-3.31l-45.44-32.06Z" transform="translate(-82.57 -69)"/><path class="cls-3" d="M576.61,286.29v9.63l28.65,17.52L611,306.7h31.35l5,6.74,30.27-17.27V287s-8.26,7.1-9.21,7.35-16.38,9.18-16.38,9.18l-12.72-13.34s-24.19.24-25,.36-13.15,12.37-13.15,12.37Z" transform="translate(-82.57 -69)"/><polygon class="cls-3" points="449.95 154.82 471.26 157.89 489.06 171.2 489.06 202.06 494.04 204.76 494.04 167.44 448.32 135.77 449.95 154.82"/><polygon class="cls-3" points="470.44 150.3 490.2 150.3 504.41 158.36 494.04 166.95 470.44 150.3"/><path class="cls-3" d="M567.84,125.69s.23,19.39,16.47,32.7c0,0-17-3.67-17-12Z" transform="translate(-82.57 -69)"/><path class="cls-3" d="M581.26,148.84s-.61-11,1-11,11.27,16.16,34.17,24V148.64a.7.7,0,0,0-.2-.5l-22.72-24.61a5.44,5.44,0,0,1-1.4-3L590,104.92a.74.74,0,0,0-1.13-.52l-21,13.55-.54,3.33,5.14,1.47,2.82,15.19Z" transform="translate(-82.57 -69)"/><path class="cls-4" d="M606.2,108.56l-1.06-.88a15.48,15.48,0,0,1,.74-2.37Z" transform="translate(-82.57 -69)"/><polygon class="cls-5" points="542.05 23 542.05 41.76 535.42 33.92 542.05 23"/><polygon class="cls-5" points="553.14 33.92 546.51 41.76 546.51 23 553.14 33.92"/><polygon class="cls-6" points="541.3 17.38 537.26 19.22 534.27 30.43 534.27 17.38 541.3 17.38"/><polygon class="cls-6" points="554.29 17.38 554.29 30.43 551.29 19.22 547.26 17.38 554.29 17.38"/><polygon class="cls-3" points="495.51 167.97 504.41 184.06 503.84 159.56 494.04 166.95 495.51 167.97"/><path class="cls-3" d="M715.75,209.58V190.23l-8.21,5.63L704,193.29l8.58-7.66-13.23-19s-1.47-28.42-1.35-28.17-.26-14.33,0-14.21,24,18.49,24,18.49l-.49,62.57Z" transform="translate(-82.57 -69)"/><polygon class="cls-3" points="646.16 92.82 646.16 113.39 654.49 119.4 654.49 125.03 660.86 128.95 660.86 104.45 646.16 92.82"/><polygon class="cls-3" points="653.51 166.06 653.51 131.78 640.28 121.84 640.28 115.97 660.86 129.93 660.86 161.16 653.51 166.06"/><path class="cls-3" d="M722,241.43l-21.79,3.31v14.72l-4.41,2.17s-1.1-4.29-1.1-4.65.61-13.57.61-13.57l26.69-19Z" transform="translate(-82.57 -69)"/><path class="cls-3" d="M722,264.82l-25.09,2.69s-14.71,11.27-15.07,11.27-5.27-3.31-5.27-3.31L722,243.41Z" transform="translate(-82.57 -69)"/><polygon class="cls-3" points="638.08 154.82 616.77 157.89 598.97 171.2 598.97 202.06 593.99 204.76 593.99 167.44 639.71 135.77 638.08 154.82"/><polygon class="cls-3" points="617.59 150.3 597.83 150.3 583.62 158.36 593.99 166.95 617.59 150.3"/><path class="cls-3" d="M685.33,125.69s-.24,19.39-16.47,32.7c0,0,17-3.67,17-12Z" transform="translate(-82.57 -69)"/><path class="cls-3" d="M671.91,148.84s.61-11-1-11-11.27,16.16-34.17,24V148.64a.74.74,0,0,1,.19-.5l22.73-24.61a5.44,5.44,0,0,0,1.4-3l2.1-15.63a.74.74,0,0,1,1.13-.52l21,13.55.54,3.33-5.15,1.47-2.81,15.19Z" transform="translate(-82.57 -69)"/><path class="cls-7" d="M620.2,245c-.18.2-.36.37-.55.55a8.78,8.78,0,0,1-6,2.08A16.62,16.62,0,0,1,603,243.16c-5.74-5.19-7.39-12.8-3.64-16.95,3.13-3.45,9-3.43,14.24-.3a.83.83,0,0,1,.12.08,17.33,17.33,0,0,1,2.86,2.12C622.31,233.3,623.94,240.89,620.2,245Z" transform="translate(-82.57 -69)"/><path class="cls-7" d="M650.74,243.16A16.61,16.61,0,0,1,640,247.67a9.24,9.24,0,0,1-5.2-1.47l0,0a7.32,7.32,0,0,1-1.29-1.14c-1.88-2.08-2.49-5.06-1.71-8.35a17.26,17.26,0,0,1,5.36-8.58A18.07,18.07,0,0,1,640,226h0c5.24-3.21,11.19-3.25,14.35.22C658.13,230.36,656.49,238,650.74,243.16Z" transform="translate(-82.57 -69)"/><path class="cls-8" d="M631.81,236.69c-.78,3.29-.17,6.27,1.71,8.35a7.32,7.32,0,0,0,1.29,1.14l0,0a8.86,8.86,0,0,0,2.16,3.68,20.2,20.2,0,0,1-19.72,0,10.13,10.13,0,0,0,2.38-4.29c.19-.18.37-.35.55-.55,3.74-4.15,2.11-11.74-3.65-16.93a17.33,17.33,0,0,0-2.86-2.12c1.43.18,4.61.65,6.27,1.63,2.21,1.31,5.07,2.53,6.9,2.53s4.66-1.22,6.88-2.53c1.62-1,4.78-1.43,6.27-1.63a18.07,18.07,0,0,0-2.84,2.12A17.26,17.26,0,0,0,631.81,236.69Z" transform="translate(-82.57 -69)"/><path class="cls-7" d="M634.8,246.18" transform="translate(-82.57 -69)"/><path class="cls-9" d="M703.88,194.41c-.13.23-.6,6.36-.6,6.36l-2,2.26-.63.7s-.06-5.29-3.25-5.29-1.35,4.1-5.64,5.29c0,0,.49-5.29-4.53-10.56l0,0a1,1,0,0,1-.18.26,10.87,10.87,0,0,1-1.25,1.33l-.45.39c-.16.14-.33.25-.51.39s-.37.28-.59.41a12.49,12.49,0,0,1-2.74,1.35l-.63.18a6.8,6.8,0,0,1-1.33.3h-.06a6.8,6.8,0,0,1-.92.12l-3.61,1.16A24.07,24.07,0,0,0,680.27,189l-36.89,7.11c4.39,4.86,9.32,7.68,14.67,8.47l-3.9,1.25a32.71,32.71,0,0,1-3.48-.51l-.1,0a35.6,35.6,0,0,1-9.15-3.27s.33,3.25,3.9,6.9h0a22.25,22.25,0,0,0,2,1.78,32,32,0,0,1-7.26-3l0,0a31.92,31.92,0,0,1-5.72-4c-1.81-1.74-5-2.35-6.83-2.35a3.23,3.23,0,0,0-.6,0h0a3.34,3.34,0,0,0-.61,0c-1.82,0-5,.61-6.82,2.35a32.28,32.28,0,0,1-5.72,4l0,0a32.05,32.05,0,0,1-7.25,3,22.25,22.25,0,0,0,2-1.78h0c3.57-3.65,3.9-6.9,3.9-6.9a35.6,35.6,0,0,1-9.15,3.27,32.42,32.42,0,0,1-3.59.53L575.15,198a6.6,6.6,0,0,1-.92-.12,8.67,8.67,0,0,1-1.4-.31l-.62-.18a12.81,12.81,0,0,1-2.75-1.35c-.21-.13-.39-.27-.58-.41s-.36-.25-.51-.39-.32-.26-.45-.39a9.87,9.87,0,0,1-1.24-1.33.61.61,0,0,1-.19-.26l0,0c-5,5.27-4.53,10.56-4.53,10.56-4.29-1.19-2.45-5.29-5.64-5.29s-3.26,5.29-3.26,5.29l-.62-.7-2-2.26s-.47-6.13-.61-6.36a16.32,16.32,0,0,1,1-2.94l13.48-17.78,62,11.82.61-.12h0l.6.12,62-11.82,13.49,17.78A16.34,16.34,0,0,1,703.88,194.41Z" transform="translate(-82.57 -69)"/><path class="cls-10" d="M665.34,285.27c0,8.07-8.36,6.44-18,1s-20.51-4.2-20.51-4.2-10.94-1.23-20.54,4.2-18,7-18-1c0-5.88,11.27-11.54,17.44-14.21H647.9C654.09,273.73,665.34,279.39,665.34,285.27Z" transform="translate(-82.57 -69)"/><path class="cls-10" d="M674.71,212.88s4.43-3.9,5-9.54c0,0-7.6,13.23-29.76,6.23a5.43,5.43,0,0,0,.41.45h0a15,15,0,0,0,8.13,4.35s-6,4.76-19.94-4.37a63,63,0,0,0-8.59-4.5l0,0a8.33,8.33,0,0,0-3.15-.71h0a8.41,8.41,0,0,0-3.16.71l0,0a63.08,63.08,0,0,0-8.58,4.5c-13.95,9.13-19.95,4.37-19.95,4.37a15,15,0,0,0,8.14-4.35h0a5.43,5.43,0,0,0,.41-.45c-22.17,7-29.77-6.23-29.77-6.23.63,5.64,5.06,9.54,5.06,9.54a15.13,15.13,0,0,1-11.66-5.74c.14,2.47,1.49,5.29,2.62,7.31l0,0,13.8,9.48c3.17.49,9.27,1.14,13-.37,0,0-9.33,9.21,3.55,19.83a12.1,12.1,0,0,1-6.23-2,61,61,0,0,0-2.12,14.19c0,4.9,4.88,6.64,7.53,7.21L605.3,257a.25.25,0,0,1,.12-.07,1.36,1.36,0,0,1,1.84,0,.25.25,0,0,1,.12.07l11.15,11.17h16.66L646.33,257a1.49,1.49,0,0,1,1-.43,1.57,1.57,0,0,1,.45.08.22.22,0,0,0,.1,0,.94.94,0,0,0,.18.12,1.41,1.41,0,0,1,.31.21l5.88,5.88c2.65-.57,7.53-2.31,7.53-7.21a61,61,0,0,0-2.12-14.19,12.1,12.1,0,0,1-6.23,2c12.85-10.62,3.53-19.83,3.53-19.83,3.68,1.51,9.79.86,13,.37l13.73-9.44c1.16-2,2.53-4.88,2.67-7.37A15.15,15.15,0,0,1,674.71,212.88Zm-24,30.28A16.61,16.61,0,0,1,640,247.67a9.24,9.24,0,0,1-5.2-1.47,8.86,8.86,0,0,0,2.16,3.68,20.2,20.2,0,0,1-19.72,0,10.13,10.13,0,0,0,2.38-4.29,8.78,8.78,0,0,1-6,2.08A16.62,16.62,0,0,1,603,243.16c-5.74-5.19-7.39-12.8-3.64-16.95,3.13-3.45,9-3.43,14.24-.3a.83.83,0,0,1,.12.08c1.43.18,4.61.65,6.27,1.63,2.21,1.31,5.07,2.53,6.9,2.53s4.66-1.22,6.88-2.53c1.62-1,4.78-1.43,6.27-1.63h0c5.24-3.21,11.19-3.25,14.35.22C658.13,230.36,656.49,238,650.74,243.16Z" transform="translate(-82.57 -69)"/><path class="cls-11" d="M674.75,287.44l-22.4,14.07L641,289.4a1.55,1.55,0,0,0-1.08-.47h-26a1.51,1.51,0,0,0-1.08.47l-11.41,12.11L579,287.44l16.38-16.38h10.46c-6.17,2.67-17.44,8.33-17.44,14.21,0,8.07,8.35,6.44,18,1s20.54-4.2,20.54-4.2,10.93-1.23,20.51,4.2,18,7,18-1c0-5.88-11.25-11.54-17.44-14.21h10.47Z" transform="translate(-82.57 -69)"/><path class="cls-11" d="M594,241.43a61,61,0,0,0-2.12,14.19c0,4.9,4.88,6.64,7.53,7.21L588.22,274V227.8c0-.06,0-.1,0-.14a1.21,1.21,0,0,0-.12-.45.93.93,0,0,0-.1-.2c0-.06-.06-.12-.1-.17a1.15,1.15,0,0,0-.19-.14s-.06-.1-.1-.12L583.75,224c3.17.49,9.27,1.14,13-.37,0,0-9.33,9.21,3.55,19.83A12.1,12.1,0,0,1,594,241.43Z" transform="translate(-82.57 -69)"/><path class="cls-11" d="M631.81,236.69c-.78,3.29-.17,6.27,1.71,8.35a7.32,7.32,0,0,0,1.29,1.14l0,0a8.86,8.86,0,0,0,2.16,3.68,20.2,20.2,0,0,1-19.72,0,10.13,10.13,0,0,0,2.38-4.29c.19-.18.37-.35.55-.55,3.74-4.15,2.11-11.74-3.65-16.93a17.33,17.33,0,0,0-2.86-2.12c1.43.18,4.61.65,6.27,1.63,2.21,1.31,5.07,2.53,6.9,2.53s4.66-1.22,6.88-2.53c1.62-1,4.78-1.43,6.27-1.63a18.07,18.07,0,0,0-2.84,2.12A17.26,17.26,0,0,0,631.81,236.69Z" transform="translate(-82.57 -69)"/><path class="cls-11" d="M670,224l-3.82,2.63s-.06.08-.1.12a1.21,1.21,0,0,0-.2.14s-.06.11-.1.17a1.76,1.76,0,0,0-.09.2,1.21,1.21,0,0,0-.12.45s0,.08,0,.14V274l-11.21-11.21c2.65-.57,7.53-2.31,7.53-7.21a61,61,0,0,0-2.12-14.19,12.1,12.1,0,0,1-6.23,2c12.85-10.62,3.53-19.83,3.53-19.83C660.68,225.09,666.79,224.44,670,224Z" transform="translate(-82.57 -69)"/><path class="cls-3" d="M612.92,83.7l1.21,21.63L626.85,118l12.72-12.62,1.21-21.63Zm3.91,2.68h7l-4,1.84-3,11.21Zm7.79,24.38L618,102.92,624.62,92Zm4.46,0V92l6.62,10.92Zm7.78-11.33-3-11.21-4-1.84h7Z" transform="translate(-82.57 -69)"/><path class="cls-3" d="M649.17,91.12l-1.35,14.19c-1.12-3.12-3.06-8.15-3.06-8.15l-1.1,12.36-16.81,16.17L610,109.52l-1.1-12.36s-1.94,5-3.06,8.15l-1.35-14.19,5.55-5.54,1.15,20.47a1.45,1.45,0,0,0,.43,1l14.15,14a1.51,1.51,0,0,0,1,.43,1.53,1.53,0,0,0,1-.43L642,107a1.42,1.42,0,0,0,.44-1l1.15-20.47Z" transform="translate(-82.57 -69)"/><path class="cls-12" d="M701.4,204.28l-3,2-16.32,10.74s.23-.32.56-.84.67-1,1.06-1.71c1.16-2,2.53-4.88,2.67-7.37a15.15,15.15,0,0,1-11.66,5.74s4.43-3.9,5-9.54c0,0-7.6,13.23-29.76,6.23a5.43,5.43,0,0,0,.41.45h0a15,15,0,0,0,8.13,4.35s-6,4.76-19.94-4.37a63,63,0,0,0-8.59-4.5l0,0a8.33,8.33,0,0,0-3.15-.71h0a8.41,8.41,0,0,0-3.16.71l0,0a63.08,63.08,0,0,0-8.58,4.5c-13.95,9.13-19.95,4.37-19.95,4.37a15,15,0,0,0,8.14-4.35h0a5.43,5.43,0,0,0,.41-.45c-22.17,7-29.77-6.23-29.77-6.23.63,5.64,5.06,9.54,5.06,9.54a15.13,15.13,0,0,1-11.66-5.74c.14,2.47,1.49,5.29,2.62,7.31l0,0c.4.69.77,1.26,1.06,1.71s.59.88.59.88l-16.32-10.74-3-2,.1-1v0c0-.08,0-.17,0-.25l.62.7a8,8,0,0,1,.06-.84c.18-1.49.81-4.45,3.2-4.45,3.19,0,1.35,4.1,5.64,5.29,0,0-.49-5.29,4.53-10.56l0,0a.61.61,0,0,0,.19.26,9.87,9.87,0,0,0,1.24,1.33c.13.13.29.25.45.39s.33.25.51.39.37.28.58.41a12.81,12.81,0,0,0,2.75,1.35l.62.18a8.67,8.67,0,0,0,1.4.31c3.19,5,8.74,9.88,18.3,9.88a24,24,0,0,0,10.58-2.45,35.6,35.6,0,0,0,9.15-3.27s-.33,3.25-3.9,6.9h0a22.25,22.25,0,0,1-2,1.78,32.05,32.05,0,0,0,7.25-3l0,0a32.28,32.28,0,0,0,5.72-4c1.8-1.74,5-2.35,6.82-2.35a3.34,3.34,0,0,1,.61,0h0a3.23,3.23,0,0,1,.6,0c1.83,0,5,.61,6.83,2.35a31.92,31.92,0,0,0,5.72,4l0,0a32,32,0,0,0,7.26,3,22.25,22.25,0,0,1-2-1.78h0c-3.57-3.65-3.9-6.9-3.9-6.9a35.6,35.6,0,0,0,9.15,3.27,3.65,3.65,0,0,0,.41.18,22.71,22.71,0,0,0,4.27,1.53c.37.09.75.19,1.14.25a2.94,2.94,0,0,0,.59.12,9.21,9.21,0,0,0,1.19.17,8.47,8.47,0,0,0,1,.1,16.21,16.21,0,0,0,2,.1,21.87,21.87,0,0,0,2.33-.12c.39,0,.78-.06,1.16-.11a24.2,24.2,0,0,0,3-.61c.29-.08.56-.16.84-.26.65-.21,1.27-.45,1.86-.7l.82-.39c.55-.28,1.06-.57,1.57-.87s.73-.47,1.08-.72.68-.51,1-.78l.94-.81a23.68,23.68,0,0,0,3.72-4.51h.06a6.8,6.8,0,0,0,1.33-.3l.63-.18a12.49,12.49,0,0,0,2.74-1.35c.22-.13.39-.27.59-.41s.35-.25.51-.39l.45-.39a10.87,10.87,0,0,0,1.25-1.33,1,1,0,0,0,.18-.26l0,0c5,5.27,4.53,10.56,4.53,10.56,4.29-1.19,2.45-5.29,5.64-5.29,2.39,0,3,3,3.19,4.47a7.47,7.47,0,0,1,.06.82l.63-.7c0,.1,0,.17,0,.27Z" transform="translate(-82.57 -69)"/><path class="cls-13" d="M603.18,197s-.39,6.33-11.33,6.33c-6.58,0-13.77-5.68-13.77-11.15Z" transform="translate(-82.57 -69)"/><path class="cls-6" d="M581.79,194.4l14.9,3.55s-2.5,3.43-4.37.49Z" transform="translate(-82.57 -69)"/><path class="cls-14" d="M573.43,189c1.24,4.72,5.55,15.81,19.09,15.81,7.89,0,13.85-4.37,17.81-8.7Zm18.42,14.38c-6.58,0-13.77-5.68-13.77-11.15l25.1,4.82S602.79,203.34,591.85,203.34Z" transform="translate(-82.57 -69)"/><path class="cls-13" d="M650.53,197s.39,6.33,11.32,6.33c6.59,0,13.78-5.68,13.78-11.15Z" transform="translate(-82.57 -69)"/><path class="cls-6" d="M671.91,194.4,657,198s2.5,3.43,4.38.49Z" transform="translate(-82.57 -69)"/><path class="cls-14" d="M643.38,196.07c4,4.33,9.91,8.7,17.81,8.7,13.54,0,17.85-11.09,19.08-15.81Zm7.15.94,25.1-4.82c0,5.47-7.19,11.15-13.78,11.15C650.92,203.34,650.53,197,650.53,197Z" transform="translate(-82.57 -69)"/><path class="cls-9" d="M620.94,241.43,619.31,243a6.13,6.13,0,0,1-.86-.55,18.51,18.51,0,0,1-3.06-3.23H610c-8.33,0-5.24-8.7-5.24-8.7a4.85,4.85,0,0,0-4.29,3.17,8.65,8.65,0,0,0-.76,2.22l-1.14-5.55c0-4.56,6.86-4.56,6.86-4.56C620.94,225.84,620.94,241.43,620.94,241.43Z" transform="translate(-82.57 -69)"/><path class="cls-4" d="M614.46,194.6a1.43,1.43,0,0,0-1.09-.94l-41.54-8a1.56,1.56,0,0,0-1.3.37,1.46,1.46,0,0,0-.43,1.27,29,29,0,0,0,4.12,10.54c3.19,5,8.73,9.88,18.3,9.88a24,24,0,0,0,10.58-2.45A32.82,32.82,0,0,0,614.25,196,1.5,1.5,0,0,0,614.46,194.6Zm-18.85,9.94a20.6,20.6,0,0,1-3.09.23c-6.45,0-10.8-2.51-13.7-5.64A24,24,0,0,1,573.43,189l36.9,7.11C606.9,199.81,602,203.6,595.61,204.54Z" transform="translate(-82.57 -69)"/><path class="cls-4" d="M622,146.34l-23.75-27.92L595.34,97.1a1.52,1.52,0,0,0-.86-1.14,1.48,1.48,0,0,0-1.41.1L566,113.79a1.5,1.5,0,0,0-.67,1.24V163a1.5,1.5,0,0,0,1.16,1.45L620.56,176a1.45,1.45,0,0,0,.29,0,1.49,1.49,0,0,0,.94-.34,1.42,1.42,0,0,0,.53-1.13V147.28A1.44,1.44,0,0,0,622,146.34Zm-27.73,21-26-5.57V123.61h3.06a41.73,41.73,0,0,0,22.9,37Zm25.14,5.38L597.18,168V159.7a1.44,1.44,0,0,0-.8-1.31c-23.93-12.11-22.14-35.15-22.07-36.11a1.5,1.5,0,0,0-.37-1.14,1.56,1.56,0,0,0-1.1-.47h-4.56v-4.86l24.45-16,2.65,19.44a1.54,1.54,0,0,0,.33.75l23.67,27.84Z" transform="translate(-82.57 -69)"/><path class="cls-4" d="M651.73,89.54l-8.34-8.37c-.1-.08-.2-.12-.28-.18s-.13-.1-.21-.14a2.19,2.19,0,0,0-.57-.09h-31a2.12,2.12,0,0,0-.57.09c-.08,0-.14.1-.21.14a2,2,0,0,0-.26.18L602,89.54a1.39,1.39,0,0,0-.41,1.17L604,116.89a1.56,1.56,0,0,0,.41.88l21.34,22.54h0a0,0,0,0,1,0,0,1.17,1.17,0,0,0,.31.2.44.44,0,0,0,.16.1,1.3,1.3,0,0,0,.55.12,1.33,1.33,0,0,0,.55-.12.75.75,0,0,0,.17-.1,1.31,1.31,0,0,0,.3-.2,0,0,0,0,1,0,0h0l21.36-22.54a1.68,1.68,0,0,0,.39-.88l2.5-26.18A1.44,1.44,0,0,0,651.73,89.54Zm-11-5.84-1.21,21.63L626.85,118l-12.72-12.62L612.92,83.7Zm7,21.61-.32,3.25-.72,7.55-19.93,21-19.93-21-.72-7.55-.32-3.25-1.35-14.19,5.55-5.54,1.15,20.47a1.45,1.45,0,0,0,.43,1l14.15,14a1.51,1.51,0,0,0,1,.43,1.53,1.53,0,0,0,1-.43L642,107a1.42,1.42,0,0,0,.44-1l1.15-20.47,5.55,5.54Z" transform="translate(-82.57 -69)"/><path class="cls-4" d="M616.55,228.11a17.33,17.33,0,0,0-2.86-2.12.83.83,0,0,0-.12-.08c-5.21-3.13-11.11-3.15-14.24.3-3.75,4.15-2.1,11.76,3.64,16.95a16.62,16.62,0,0,0,10.72,4.51,8.78,8.78,0,0,0,6-2.08c.19-.18.37-.35.55-.55C623.94,240.89,622.31,233.3,616.55,228.11Zm1.47,15C615.41,246,609.42,245,605,241a14.44,14.44,0,0,1-4.47-7.23,6,6,0,0,1,1-5.54,5.64,5.64,0,0,1,4.31-1.69,13.83,13.83,0,0,1,8.76,3.78c4.2,3.79,5.84,9.15,3.88,12.21A3,3,0,0,1,618,243.08Z" transform="translate(-82.57 -69)"/><path class="cls-15" d="M618.45,242.49a3,3,0,0,1-.43.59C615.41,246,609.42,245,605,241a14.44,14.44,0,0,1-4.47-7.23,4.85,4.85,0,0,1,4.29-3.17s-3.09,8.7,5.24,8.7h5.38A18.51,18.51,0,0,0,618.45,242.49Z" transform="translate(-82.57 -69)"/><path class="cls-9" d="M633.32,241.43,635,243a6.13,6.13,0,0,0,.86-.55,18.51,18.51,0,0,0,3.06-3.23h5.39c8.33,0,5.23-8.7,5.23-8.7a4.84,4.84,0,0,1,4.29,3.17,9,9,0,0,1,.77,2.22l1.13-5.55c0-4.56-6.86-4.56-6.86-4.56C633.32,225.84,633.32,241.43,633.32,241.43Z" transform="translate(-82.57 -69)"/><path class="cls-15" d="M635.81,242.49a3.41,3.41,0,0,0,.43.59c2.61,2.88,8.61,1.92,13.07-2.12a14.37,14.37,0,0,0,4.47-7.23,4.84,4.84,0,0,0-4.29-3.17s3.1,8.7-5.23,8.7h-5.39A18.51,18.51,0,0,1,635.81,242.49Z" transform="translate(-82.57 -69)"/><path class="cls-4" d="M687.69,113.79,660.63,96.06a1.48,1.48,0,0,0-1.41-.1,1.52,1.52,0,0,0-.86,1.14l-2.88,21.32-23.77,27.92a1.49,1.49,0,0,0-.34.94v27.28a1.45,1.45,0,0,0,.53,1.13,1.38,1.38,0,0,0,1.24.3l54.06-11.58a1.5,1.5,0,0,0,1.16-1.45V115A1.5,1.5,0,0,0,687.69,113.79Zm-2.27,48-26,5.57v-6.76a41.74,41.74,0,0,0,22.91-37h3.06Zm0-41.11h-4.57a1.6,1.6,0,0,0-1.1.47,1.54,1.54,0,0,0-.37,1.14c.08,1,1.86,24-22.06,36.11a1.45,1.45,0,0,0-.81,1.31V168l-22.2,4.76v-24.9L658,120a1.55,1.55,0,0,0,.34-.75L661,99.8l24.46,16Z" transform="translate(-82.57 -69)"/><path class="cls-4" d="M683.17,186a1.55,1.55,0,0,0-1.29-.37l-41.54,8a1.46,1.46,0,0,0-1.1.94,1.43,1.43,0,0,0,.24,1.43,32.59,32.59,0,0,0,11.19,9.25,23.93,23.93,0,0,0,10.52,2.43,20.67,20.67,0,0,0,18.32-9.89,29.46,29.46,0,0,0,4.1-10.53A1.47,1.47,0,0,0,683.17,186Zm-8.25,13.09a17.94,17.94,0,0,1-13.73,5.66,21.9,21.9,0,0,1-3.14-.23c-5.35-.79-10.28-3.61-14.67-8.47L680.27,189A24.07,24.07,0,0,1,674.92,199.11Z" transform="translate(-82.57 -69)"/><path class="cls-4" d="M654.39,226.21c-3.16-3.47-9.11-3.43-14.35-.22h0a18.07,18.07,0,0,0-2.84,2.12,17.26,17.26,0,0,0-5.36,8.58c-.78,3.29-.17,6.27,1.71,8.35a7.32,7.32,0,0,0,1.29,1.14l0,0a9.24,9.24,0,0,0,5.2,1.47,16.61,16.61,0,0,0,10.71-4.51C656.49,238,658.13,230.36,654.39,226.21ZM648.77,241c-4.47,4-10.47,5-13.07,2.12a6.1,6.1,0,0,1-1-5.7,14.17,14.17,0,0,1,4.46-7.1,13.83,13.83,0,0,1,8.76-3.78,5.61,5.61,0,0,1,4.31,1.69C654.82,231.07,653.23,236.93,648.77,241Z" transform="translate(-82.57 -69)"/><path class="cls-4" d="M745.11,172.17l-21-16.21V142.71a1.48,1.48,0,0,0-.55-1.15L700.12,122.9V108.66a1.48,1.48,0,0,0-.66-1.22l-38.21-25-13-13a1.48,1.48,0,0,0-1-.41H606.5a1.47,1.47,0,0,0-1,.41l-13,13-38.21,25a1.49,1.49,0,0,0-.67,1.22V122.9l-23.45,18.66a1.48,1.48,0,0,0-.55,1.15V156l-21,16.21a1.47,1.47,0,0,0-.57,1.15V230.4a1.44,1.44,0,0,0,.69,1.24l20.87,13.28v20.75a1.5,1.5,0,0,0,.61,1.2l24.12,17.2v12a1.46,1.46,0,0,0,.58,1.18l46.05,35a1.53,1.53,0,0,0,.9.31h50a1.49,1.49,0,0,0,.88-.31l46-35a1.47,1.47,0,0,0,.59-1.18v-12l24.12-17.2a1.53,1.53,0,0,0,.61-1.2V244.92L745,231.64a1.43,1.43,0,0,0,.68-1.24V173.32A1.44,1.44,0,0,0,745.11,172.17ZM529.59,241.43l-12.5-8L511,229.6V199.36l18.62-12.07Zm0-57.62L511,195.86V174.05l18.62-14.39Zm26.65-16.7a1.47,1.47,0,0,0,.29-.88V109.46l37.66-24.67a.78.78,0,0,0,.24-.19l12.68-12.66h39.5L659.29,84.6a.87.87,0,0,0,.23.19l37.66,24.67v56.77a1.42,1.42,0,0,0,.3.88l13.58,18.42-7,5.31-13.4-18.46a1.47,1.47,0,0,0-1.47-.57l-62.65,12.07v0c-1.5-.41-4.25-.94-9.23-1.9l-52.86-10.19a1.47,1.47,0,0,0-1.47.57l-13.41,18.46-7-5.31ZM578.09,237l7.19-6V277l-7.19,7.19Zm-1.57-2.53L554.2,219.29l-2.82-1.92V205.28l20.4,14,12.54,8.62Zm18.83,36.62h63l16.38,16.38-22.4,14.07L641,289.4a1.55,1.55,0,0,0-1.08-.47h-26a1.51,1.51,0,0,0-1.08.47l-11.41,12.11L579,287.44Zm2.94-2.94,8.05-8.05,8,8.05Zm41.05,0,8-8.05,8.06,8.05Zm29.1,8.86V230.93l7.19,6v47.2Zm1-49.07,32.94-22.63v12.09L677.2,234.44Zm31.19-25-16.89,11.6L670,224l-3.82,2.63s-.06.08-.1.12a1.21,1.21,0,0,0-.2.14s-.06.11-.1.17a1.76,1.76,0,0,0-.09.2,1.21,1.21,0,0,0-.12.45s0,.08,0,.14V274l-11.21-11.21L648.41,257a1.41,1.41,0,0,0-.31-.21.94.94,0,0,1-.18-.12.22.22,0,0,1-.1,0,1.57,1.57,0,0,0-.45-.08,1.49,1.49,0,0,0-1,.43l-11.14,11.17H618.53L607.38,257a.25.25,0,0,0-.12-.07,1.36,1.36,0,0,0-1.84,0,.25.25,0,0,0-.12.07L588.22,274V227.8c0-.06,0-.1,0-.14a1.21,1.21,0,0,0-.12-.45.93.93,0,0,0-.1-.2c0-.06-.06-.12-.1-.17a1.15,1.15,0,0,0-.19-.14s-.06-.1-.1-.12L583.75,224,570,214.47l0,0-16.85-11.56-1.7-1.18v-8.3l13.46-18.54,61.74,11.91a2.53,2.53,0,0,0,.55,0l61.75-11.91,13.46,18.54v8.3ZM532.53,143.42l21.06-16.75v39.07l-14.16,19.2a1.49,1.49,0,0,0,.29,2.06l8.72,6.66v21.71l-11-7.46-4.9-3.33Zm0,64.7,16.56,11.25,26.06,17.69v35.22l-3.51-2.39,0,0-12.4-8.41V242.71a1.5,1.5,0,0,0-.63-1.22l-26.06-17.67Zm0,19.24,23.75,16.13v16L553,257.23l0,0-20.44-13.87Zm188.66,37.55-24.12,17.2a1.45,1.45,0,0,0-.61,1.2v12l-45.09,34.29h-49l-45.08-34.29v-12a1.47,1.47,0,0,0-.61-1.2l-24-17.14-.08-.06v-18l42.62,28.92v11.9a1.66,1.66,0,0,0,.15.64l.12.18c.06.06.1.16.16.22s.12.07.17.11,0,.06.08.1l.79.49,24.2,15.19a1.47,1.47,0,0,0,1.86-.26l11.79-12.52h24.77L651,304.39a1.43,1.43,0,0,0,1.08.47,1.63,1.63,0,0,0,.78-.21l24.75-15.52.23-.16.08-.1a1.74,1.74,0,0,0,.18-.11c.06-.06.1-.16.15-.22l.12-.18a1.51,1.51,0,0,0,.16-.64v-11.9l42.62-28.92Zm0-21.57-23.75,16.12v-16l23.75-16.13Zm0-19.52-26.06,17.67a1.48,1.48,0,0,0-.63,1.22v18.75l-15.93,10.82V237.06l26.06-17.69,16.56-11.25Zm0-19.24-15.91,10.79V193.66L714,187a1.5,1.5,0,0,0,.29-2.06l-14.17-19.2V126.67l21.07,16.75Zm21.55,25-18.61,11.83V187.29l18.61,12.07Zm0-33.74-18.61-12.05V159.66l18.61,14.39Z" transform="translate(-82.57 -69)"/><polygon class="cls-16" points="531.81 199.12 515.72 199.12 523.77 191.07 531.81 199.12"/><polygon class="cls-16" points="572.86 199.12 556.77 199.12 564.81 191.07 572.86 199.12"/><path class="cls-6" d="M601.1,266.41l5-5,2.12,2.12v2.22s-3.53,1.47-5,1.47A2.75,2.75,0,0,1,601.1,266.41Z" transform="translate(-82.57 -69)"/><path class="cls-6" d="M652.07,266.41l-5-5-2.13,2.12v2.22s3.53,1.47,5,1.47A2.78,2.78,0,0,0,652.07,266.41Z" transform="translate(-82.57 -69)"/><path class="cls-17" d="M784.46,282.49c0,1.87-1.41,2.8-4.21,2.8H768.9V271h12.23c2.14,0,3.22.93,3.22,2.77v1.74c0,1.41-.83,2.21-2.47,2.41,1.72.23,2.58,1.14,2.58,2.74Zm-3.19-6.78v-1.36c0-.68-.51-1-1.52-1h-7.58v3.4h7.58C780.76,276.73,781.27,276.39,781.27,275.71Zm.08,5.73v-1.08c0-.54-.12-.88-.37-1a2.39,2.39,0,0,0-1.23-.23h-7.58v3.62h7.58a2.5,2.5,0,0,0,1.23-.23C781.23,282.32,781.35,282,781.35,281.44Z" transform="translate(-82.57 -69)"/><path class="cls-18" d="M814.49,271l-7.39,7.81v6.48h-3.35v-6.4L796.33,271h4.43l4.9,5.48,4.93-5.48Z" transform="translate(-82.57 -69)"/><path class="cls-19" d="M1114.38,285.29h-14.75V271h14.61v2.44H1103v3.18h6.59v2.44H1103v3.54h11.43Z" transform="translate(-82.57 -69)"/><path class="cls-20" d="M865.21,281.91a3.62,3.62,0,0,1-.76,2.68,4.23,4.23,0,0,1-2.79.7H851.15a4.23,4.23,0,0,1-2.79-.7,3.57,3.57,0,0,1-.76-2.68v-7.53a3.6,3.6,0,0,1,.76-2.69,4.23,4.23,0,0,1,2.79-.69h10.51a4.23,4.23,0,0,1,2.79.69,3.64,3.64,0,0,1,.76,2.69Zm-3.33.69v-9.05h-11v9.05Z" transform="translate(-82.57 -69)"/><path class="cls-21" d="M898.93,281.91a3.62,3.62,0,0,1-.76,2.68,4.23,4.23,0,0,1-2.79.7H884.87a4.21,4.21,0,0,1-2.79-.7,3.57,3.57,0,0,1-.76-2.68v-7.53a3.6,3.6,0,0,1,.76-2.69,4.22,4.22,0,0,1,2.79-.69h10.51a4.23,4.23,0,0,1,2.79.69,3.64,3.64,0,0,1,.76,2.69Zm-3.33.69v-9.05h-11v9.05Z" transform="translate(-82.57 -69)"/><path class="cls-22" d="M932,281.91a3.57,3.57,0,0,1-.76,2.68,4.23,4.23,0,0,1-2.79.7h-9.85a4.23,4.23,0,0,1-2.79-.7,3.62,3.62,0,0,1-.76-2.68v-7.53a3.64,3.64,0,0,1,.76-2.69,4.23,4.23,0,0,1,2.79-.69h9.85a4,4,0,0,1,2.84.74,4.16,4.16,0,0,1,.71,2.83l-3.24.58v-1.6H918.36v9.05h10.38v-3.18h-5.43V277H932Z" transform="translate(-82.57 -69)"/><path class="cls-23" d="M964.65,285.29h-3.74l-1.72-3.13h-9.05l-1.66,3.13h-3.32L953.24,271h3.21Zm-6.84-5.71-3.07-5.81-3.19,5.81Z" transform="translate(-82.57 -69)"/><path class="cls-24" d="M992.6,271l-7.86,14.29h-2.29L974.2,271H978l5.78,10.33L989.28,271Z" transform="translate(-82.57 -69)"/><path class="cls-25" d="M1020.65,285.29h-14.76V271h14.62v2.44h-11.29v3.18h6.59v2.44h-6.59v3.54h11.43Z" transform="translate(-82.57 -69)"/><path class="cls-26" d="M1053.15,285.29h-4.76l-5.76-5.4h-3.15v5.4h-3.27V271h12.23c2.14,0,3.22.93,3.22,2.77v3.35a2.36,2.36,0,0,1-1.67,2.57,16.68,16.68,0,0,1-3.43.2Zm-4.71-9V274.6a1,1,0,0,0-.41-.94,2.19,2.19,0,0,0-1.08-.19h-7.47v4H1047a2.19,2.19,0,0,0,1.08-.19A1,1,0,0,0,1048.44,276.32Z" transform="translate(-82.57 -69)"/><path class="cls-27" d="M1083.32,281.91a3.57,3.57,0,0,1-.77,2.68,4.28,4.28,0,0,1-2.8.7h-8.83q-2.19,0-2.88-.78a4.65,4.65,0,0,1-.69-3l2.93-.61v1.69h10.11v-3.27h-8.91a4.22,4.22,0,0,1-2.79-.69,3.57,3.57,0,0,1-.76-2.68v-1.58a3.6,3.6,0,0,1,.76-2.69,4.22,4.22,0,0,1,2.79-.69h8.1a4.14,4.14,0,0,1,2.8.71,3.73,3.73,0,0,1,.75,2.72l-2.94.7v-1.64h-9.35v3.08h8.91a4.28,4.28,0,0,1,2.8.69,3.57,3.57,0,0,1,.77,2.68Z" transform="translate(-82.57 -69)"/><path class="cls-28" d="M794.17,156.9H841l25.15,92.62h-54V229.41h18.13L819.7,183.63h-5.29l-16.54,65.89h-29Z" transform="translate(-82.57 -69)"/><path class="cls-29" d="M899.89,219.75v29.77H872.11V156.9h61c9.4,0,16.14,6.75,16.14,16.15v30.56c0,9.39-6.74,16.14-16.14,16.14ZM921.59,199V179.66h-21.7V199Z" transform="translate(-82.57 -69)"/><path class="cls-30" d="M961.16,156.9h70.65l-7.93,22.76H988.94V194h34.94v17.47H988.94v15.35h42.87l-7.93,22.75H961.16Z" transform="translate(-82.57 -69)"/><path class="cls-31" d="M1037.11,249.52l7.94-22.75h40.23V213h-28c-9.4,0-16.14-6.74-16.14-16.14V173.05c0-9.4,6.74-16.15,16.14-16.15h57.15l-7.94,22.76h-37.57v13.76h28.05c9.39,0,16.14,6.75,16.14,16.14v23.82c0,9.39-6.75,16.14-16.14,16.14Z" transform="translate(-82.57 -69)"/><path class="cls-32" d="M209.06,249.52H181.27V179.66H159.7v69.86H131.92V179.66H110.35v69.86H82.57V156.9H192.91c9.4,0,16.15,6.75,16.15,16.15Z" transform="translate(-82.57 -69)"/><path class="cls-33" d="M222.3,156.9H293L285,179.66H250.09V194H285v17.47H250.09v15.35H293L285,249.52H222.3Z" transform="translate(-82.57 -69)"/><path class="cls-34" d="M330.67,249.52H302.89V156.9h27.78V192h11l11.91-35.07h31.76L370.76,192c-2.38,5.55-5.42,8.33-9.66,9.66,4.24.92,7.54,3,9.79,8.46l16,39.43H354.09l-12.7-34.8H330.67Z" transform="translate(-82.57 -69)"/><path class="cls-35" d="M412.84,156.9h46.84l25.14,92.62h-54V229.41H449l-10.58-45.78h-5.29l-16.54,65.89h-29Z" transform="translate(-82.57 -69)"/><rect class="cls-36" y="208.54" width="402.25" height="1.22"/><path class="cls-37" d="M784.46,280.05c0,1.87-1.41,2.8-4.21,2.8H768.9V268.56h12.23c2.14,0,3.22.93,3.22,2.77v1.75c0,1.4-.83,2.2-2.47,2.4,1.72.23,2.58,1.14,2.58,2.74Zm-3.19-6.78v-1.36c0-.68-.51-1-1.52-1h-7.58v3.41h7.58C780.76,274.3,781.27,274,781.27,273.27Zm.08,5.73v-1.08c0-.53-.12-.88-.37-1a2.5,2.5,0,0,0-1.23-.23h-7.58v3.63h7.58A2.37,2.37,0,0,0,781,280C781.23,279.88,781.35,279.54,781.35,279Z" transform="translate(-82.57 -69)"/><path class="cls-38" d="M814.49,268.56l-7.39,7.81v6.48h-3.35v-6.4l-7.42-7.89h4.43l4.9,5.49,4.93-5.49Z" transform="translate(-82.57 -69)"/><path class="cls-39" d="M1114.38,282.85h-14.75V268.56h14.61V271H1103v3.18h6.59v2.44H1103v3.54h11.43Z" transform="translate(-82.57 -69)"/><path class="cls-40" d="M865.21,279.47a3.64,3.64,0,0,1-.76,2.69,4.23,4.23,0,0,1-2.79.69H851.15a4.23,4.23,0,0,1-2.79-.69,3.6,3.6,0,0,1-.76-2.69v-7.53a3.57,3.57,0,0,1,.76-2.68,4.23,4.23,0,0,1,2.79-.7h10.51a4.23,4.23,0,0,1,2.79.7,3.62,3.62,0,0,1,.76,2.68Zm-3.33.69v-9.05h-11v9.05Z" transform="translate(-82.57 -69)"/><path class="cls-41" d="M898.93,279.47a3.64,3.64,0,0,1-.76,2.69,4.23,4.23,0,0,1-2.79.69H884.87a4.22,4.22,0,0,1-2.79-.69,3.6,3.6,0,0,1-.76-2.69v-7.53a3.57,3.57,0,0,1,.76-2.68,4.21,4.21,0,0,1,2.79-.7h10.51a4.23,4.23,0,0,1,2.79.7,3.62,3.62,0,0,1,.76,2.68Zm-3.33.69v-9.05h-11v9.05Z" transform="translate(-82.57 -69)"/><path class="cls-42" d="M932,279.47a3.6,3.6,0,0,1-.76,2.69,4.23,4.23,0,0,1-2.79.69h-9.85a4.23,4.23,0,0,1-2.79-.69,3.64,3.64,0,0,1-.76-2.69v-7.53a3.62,3.62,0,0,1,.76-2.68,4.23,4.23,0,0,1,2.79-.7h9.85a4,4,0,0,1,2.84.74,4.16,4.16,0,0,1,.71,2.83l-3.24.58v-1.6H918.36v9.05h10.38V277h-5.43v-2.44H932Z" transform="translate(-82.57 -69)"/><path class="cls-43" d="M964.65,282.85h-3.74l-1.72-3.13h-9.05l-1.66,3.13h-3.32l8.08-14.29h3.21Zm-6.84-5.7-3.07-5.82-3.19,5.82Z" transform="translate(-82.57 -69)"/><path class="cls-44" d="M992.6,268.56l-7.86,14.29h-2.29l-8.25-14.29H978l5.78,10.33,5.51-10.33Z" transform="translate(-82.57 -69)"/><path class="cls-45" d="M1020.65,282.85h-14.76V268.56h14.62V271h-11.29v3.18h6.59v2.44h-6.59v3.54h11.43Z" transform="translate(-82.57 -69)"/><path class="cls-46" d="M1053.15,282.85h-4.76l-5.76-5.4h-3.15v5.4h-3.27V268.56h12.23c2.14,0,3.22.93,3.22,2.77v3.35a2.37,2.37,0,0,1-1.67,2.58,17,17,0,0,1-3.43.19Zm-4.71-9v-1.72a1,1,0,0,0-.41-.94A2.19,2.19,0,0,0,1047,271h-7.47v4H1047a2.19,2.19,0,0,0,1.08-.19A1,1,0,0,0,1048.44,273.88Z" transform="translate(-82.57 -69)"/><path class="cls-47" d="M1083.32,279.47a3.6,3.6,0,0,1-.77,2.69,4.28,4.28,0,0,1-2.8.69h-8.83q-2.19,0-2.88-.78a4.65,4.65,0,0,1-.69-3l2.93-.61v1.69h10.11V276.9h-8.91a4.15,4.15,0,0,1-2.79-.7,3.57,3.57,0,0,1-.76-2.68v-1.58a3.57,3.57,0,0,1,.76-2.68,4.21,4.21,0,0,1,2.79-.7h8.1a4.14,4.14,0,0,1,2.8.71,3.74,3.74,0,0,1,.75,2.73l-2.94.69v-1.64h-9.35v3.08h8.91a4.28,4.28,0,0,1,2.8.69,3.6,3.6,0,0,1,.77,2.69Z" transform="translate(-82.57 -69)"/><path class="cls-48" d="M794.17,154.46H841l25.15,92.62h-54V227h18.13L819.7,181.19h-5.29l-16.54,65.89h-29Z" transform="translate(-82.57 -69)"/><path class="cls-49" d="M899.89,217.31v29.77H872.11V154.46h61c9.4,0,16.14,6.75,16.14,16.15v30.56c0,9.4-6.74,16.14-16.14,16.14Zm21.7-20.77V177.22h-21.7v19.32Z" transform="translate(-82.57 -69)"/><path class="cls-50" d="M961.16,154.46h70.65l-7.93,22.76H988.94v14.29h34.94V209H988.94v15.35h42.87l-7.93,22.75H961.16Z" transform="translate(-82.57 -69)"/><path class="cls-51" d="M1037.11,247.08l7.94-22.75h40.23V210.57h-28c-9.4,0-16.14-6.75-16.14-16.15V170.61c0-9.4,6.74-16.15,16.14-16.15h57.15l-7.94,22.76h-37.57V191h28.05c9.39,0,16.14,6.75,16.14,16.15v23.81c0,9.4-6.75,16.14-16.14,16.14Z" transform="translate(-82.57 -69)"/><path class="cls-52" d="M209.06,247.08H181.27V177.22H159.7v69.86H131.92V177.22H110.35v69.86H82.57V154.46H192.91c9.4,0,16.15,6.75,16.15,16.15Z" transform="translate(-82.57 -69)"/><path class="cls-53" d="M222.3,154.46H293L285,177.22H250.09v14.29H285V209H250.09v15.35H293L285,247.08H222.3Z" transform="translate(-82.57 -69)"/><path class="cls-54" d="M330.67,247.08H302.89V154.46h27.78v35.07h11l11.91-35.07h31.76l-14.56,35.07c-2.38,5.55-5.42,8.33-9.66,9.66,4.24.92,7.54,3,9.79,8.47l16,39.42H354.09l-12.7-34.79H330.67Z" transform="translate(-82.57 -69)"/><path class="cls-55" d="M412.84,154.46h46.84l25.14,92.62h-54V227H449l-10.58-45.78h-5.29l-16.54,65.89h-29Z" transform="translate(-82.57 -69)"/><rect class="cls-56" y="206.1" width="402.25" height="1.22"/></svg>