<svg width="24" height="24" viewBox="0 0 24 24" fill="none" xmlns="http://www.w3.org/2000/svg">
<path d="M2.32261 13.4203L2.4004 13.2981L7.08929 5.96294C7.15779 5.85551 7.31893 5.86665 7.37076 5.98328C8.1541 7.73887 8.83002 9.9222 8.51335 11.2814C8.37817 11.8407 8.00782 12.5981 7.59114 13.2981C7.53742 13.4 7.47818 13.5 7.41522 13.5963C7.38558 13.6407 7.33559 13.6667 7.28188 13.6667H2.45964C2.33002 13.6667 2.25412 13.5259 2.32261 13.4203Z" fill="#141A25"/>
<path d="M23.2222 14.7833V15.9444C23.2222 16.0111 23.1815 16.0704 23.1222 16.0963C22.7593 16.2519 21.5167 16.8222 21 17.5407C19.6815 19.3759 18.6741 22 16.4222 22H7.0278C3.69815 22 1 19.2926 1 15.9519V15.8444C1 15.7555 1.07222 15.6833 1.16114 15.6833H6.39814C6.50184 15.6833 6.57779 15.7796 6.56853 15.8815C6.53148 16.2222 6.59445 16.5704 6.75555 16.887C7.06669 17.5185 7.71113 17.913 8.40743 17.913H11V15.8889H8.43704C8.30558 15.8889 8.22779 15.737 8.30373 15.6296C8.33149 15.587 8.36297 15.5426 8.3963 15.4926C8.63891 15.1482 8.98518 14.613 9.32965 14.0037C9.56481 13.5926 9.7926 13.1537 9.97593 12.713C10.013 12.6333 10.0426 12.5519 10.0722 12.4722C10.1222 12.3315 10.1741 12.2 10.2111 12.0685C10.2481 11.9574 10.2778 11.8407 10.3074 11.7315C10.3945 11.3574 10.4315 10.9611 10.4315 10.55C10.4315 10.3889 10.4241 10.2204 10.4093 10.0592C10.4019 9.88332 10.3796 9.7074 10.3574 9.53148C10.3426 9.37591 10.3148 9.22222 10.2852 9.06112C10.2481 8.82592 10.1963 8.59261 10.137 8.35741L10.1167 8.26853C10.0722 8.10743 10.0352 7.9537 9.98334 7.7926C9.83706 7.28703 9.66851 6.79444 9.49075 6.33333C9.42594 6.15 9.35184 5.97408 9.27778 5.79817C9.16851 5.53333 9.0574 5.2926 8.95558 5.06481C8.90371 4.96111 8.85925 4.86666 8.81483 4.77037C8.76484 4.6611 8.71297 4.55187 8.66114 4.44813C8.62409 4.3685 8.58147 4.29444 8.55187 4.22038L8.2352 3.63518C8.19074 3.55556 8.26484 3.46111 8.35184 3.48518L10.3333 4.02223H10.3389C10.3426 4.02223 10.3445 4.02407 10.3463 4.02407L10.6074 4.09629L10.8945 4.17776L11 4.2074V3.02964C11 2.46111 11.4556 2 12.0185 2C12.3 2 12.5556 2.1148 12.7389 2.30185C12.9222 2.4889 13.0371 2.74445 13.0371 3.02964V4.77778L13.2481 4.83702C13.2648 4.84259 13.2815 4.85 13.2963 4.86109C13.3482 4.89998 13.4222 4.95742 13.5167 5.02776C13.5908 5.08704 13.6704 5.15926 13.7667 5.23332C13.9574 5.38705 14.1852 5.5852 14.4352 5.81295C14.5018 5.87038 14.5667 5.92962 14.6259 5.9889C14.9482 6.28887 15.3093 6.64075 15.6537 7.02964C15.75 7.13887 15.8445 7.24998 15.9408 7.36666C16.0371 7.48518 16.1389 7.60186 16.2278 7.71854C16.3445 7.87407 16.4704 8.03517 16.5796 8.20372C16.6315 8.28335 16.6907 8.36482 16.7408 8.44444C16.8815 8.65741 17.0056 8.87779 17.1241 9.09813C17.1741 9.19999 17.2259 9.3111 17.2704 9.42037C17.4019 9.71481 17.5056 10.0148 17.5722 10.3148C17.5926 10.3796 17.6074 10.45 17.6148 10.513V10.5278C17.637 10.6167 17.6444 10.7111 17.6518 10.8074C17.6815 11.1148 17.6667 11.4222 17.6 11.7315C17.5722 11.863 17.5352 11.987 17.4907 12.1185C17.4463 12.2445 17.4019 12.3759 17.3445 12.5C17.2334 12.7574 17.1019 13.0148 16.9463 13.2555C16.8963 13.3444 16.8371 13.4389 16.7778 13.5278C16.713 13.6222 16.6463 13.7111 16.587 13.7982C16.5056 13.9093 16.4185 14.0259 16.3297 14.1296C16.25 14.2389 16.1685 14.3482 16.0796 14.4444C15.9556 14.5907 15.8371 14.7296 15.713 14.863C15.6389 14.95 15.5593 15.0389 15.4778 15.1185C15.3981 15.2074 15.3167 15.287 15.2426 15.3611C15.1185 15.4852 15.0148 15.5815 14.9278 15.6611L14.7241 15.8482C14.6945 15.8741 14.6556 15.8889 14.6148 15.8889H13.0371V17.913H15.0222C15.4667 17.913 15.8889 17.7555 16.2296 17.4667C16.3463 17.3648 16.8556 16.9241 17.4574 16.2593C17.4778 16.237 17.5037 16.2204 17.5333 16.213L23.0167 14.6278C23.1185 14.5981 23.2222 14.6759 23.2222 14.7833Z" fill="#141A25"/>
</svg>
