<svg width="48" height="48" viewBox="0 0 48 48" fill="none" xmlns="http://www.w3.org/2000/svg">
<path d="M19 32C19 33.5 18.58 34.92 17.84 36.12C16.46 38.44 13.92 40 11 40C8.08 40 5.54 38.44 4.16 36.12C3.42 34.92 3 33.5 3 32C3 27.58 6.58 24 11 24C15.42 24 19 27.58 19 32Z" stroke="white" stroke-width="2" stroke-miterlimit="10" stroke-linecap="round" stroke-linejoin="round"/>
<path d="M7.88281 31.999L9.86282 33.979L14.1228 30.0391" stroke="white" stroke-width="2" stroke-linecap="round" stroke-linejoin="round"/>
<path d="M45 18V28C45 34 41 38 35 38H16.26C16.88 37.48 17.42 36.84 17.84 36.12C18.58 34.92 19 33.5 19 32C19 27.58 15.42 24 11 24C8.6 24 6.46 25.06 5 26.72V18C5 12.56 8.28 8.76 13.38 8.12C13.9 8.04 14.44 8 15 8H35C35.52 8 36.02 8.01998 36.5 8.09998C41.66 8.69998 45 12.52 45 18Z" stroke="white" stroke-width="2" stroke-linecap="round" stroke-linejoin="round"/>
<path d="M45 19H39C36.8 19 35 20.8 35 23C35 25.2 36.8 27 39 27H45" stroke="white" stroke-width="2" stroke-linecap="round" stroke-linejoin="round"/>
</svg>
